<svg xmlns="http://www.w3.org/2000/svg" viewBox="0 0 16 16">
  <!-- Darker outline -->
  <rect fill="#1a8f4a" x="2" y="1" width="2" height="1"/>
  <rect fill="#1a8f4a" x="4" y="1" width="2" height="1"/>
  <rect fill="#1a8f4a" x="10" y="1" width="2" height="1"/>
  <rect fill="#1a8f4a" x="12" y="1" width="2" height="1"/>
  <rect fill="#1a8f4a" x="1" y="2" width="1" height="2"/>
  <rect fill="#1a8f4a" x="6" y="2" width="2" height="2"/>
  <rect fill="#1a8f4a" x="8" y="2" width="2" height="2"/>
  <rect fill="#1a8f4a" x="14" y="2" width="1" height="2"/>
  <rect fill="#1a8f4a" x="0" y="4" width="1" height="4"/>
  <rect fill="#1a8f4a" x="15" y="4" width="1" height="4"/>
  <rect fill="#1a8f4a" x="1" y="8" width="1" height="1"/>
  <rect fill="#1a8f4a" x="14" y="8" width="1" height="1"/>
  <rect fill="#1a8f4a" x="2" y="9" width="2" height="1"/>
  <rect fill="#1a8f4a" x="13" y="9" width="1" height="1"/>
  <rect fill="#1a8f4a" x="4" y="11" width="1" height="1"/>
  <rect fill="#1a8f4a" x="11" y="11" width="1" height="1"/>
  <rect fill="#1a8f4a" x="6" y="13" width="1" height="1"/>
  <rect fill="#1a8f4a" x="9" y="13" width="1" height="1"/>
  <rect fill="#1a8f4a" x="7" y="14" width="2" height="1"/>
  
  <!-- Lighter green fill -->
  <rect fill="#2ecc71" x="2" y="2" width="2" height="2"/>
  <rect fill="#2ecc71" x="4" y="2" width="2" height="2"/>
  <rect fill="#2ecc71" x="10" y="2" width="2" height="2"/>
  <rect fill="#2ecc71" x="12" y="2" width="2" height="2"/>
  <rect fill="#2ecc71" x="1" y="4" width="13" height="2"/>
  <rect fill="#2ecc71" x="1" y="6" width="14" height="2"/>
  <rect fill="#2ecc71" x="2" y="8" width="12" height="1"/>
  <rect fill="#2ecc71" x="4" y="9" width="8" height="1"/>
  <rect fill="#2ecc71" x="4" y="10" width="8" height="1"/>
  <rect fill="#2ecc71" x="5" y="11" width="6" height="1"/>
  <rect fill="#2ecc71" x="6" y="12" width="4" height="1"/>
  <rect fill="#2ecc71" x="7" y="13" width="2" height="1"/>
</svg>
